<svg id="svg4414" xmlns="http://www.w3.org/2000/svg" xmlns:xlink="http://www.w3.org/1999/xlink" viewBox="0 0 800 499.42"><defs><style>.cls-1,.cls-2,.cls-3,.cls-4{stroke:#000;}.cls-1,.cls-3{stroke-width:5px;}.cls-1{fill:url(#radial-gradient);}.cls-2{stroke-width:1.38px;fill:url(#radial-gradient-2);}.cls-3{fill:none;stroke-linecap:round;}.cls-4{fill:aqua;}</style><radialGradient id="radial-gradient" cx="179.88" cy="365.03" r="75.82" gradientTransform="matrix(0.83, 0, 0, -0.94, 326.5, 677.98)" gradientUnits="userSpaceOnUse"><stop offset="0" stop-color="#fff"/><stop offset="1" stop-color="#c5c5c5"/></radialGradient><radialGradient id="radial-gradient-2" cx="179.88" cy="365.04" r="75.81" gradientTransform="matrix(0.83, 0, 0, -0.94, 161.84, 677.98)" xlink:href="#radial-gradient"/></defs><title>fail</title><g id="layer1"><g id="g4923"><g id="g4186"><path id="path4188" class="cls-1" d="M536.47,336.13c0,38-27.22,68.73-60.8,68.73s-60.79-30.77-60.79-68.73,27.22-68.74,60.79-68.74Z"/><path id="path4190" d="M511.18,360.21c0,21.42-15.9,38.78-35.51,38.78s-35.51-17.36-35.51-38.78,15.9-38.77,35.51-38.77S511.18,338.8,511.18,360.21Z"/></g><path id="path4192" class="cls-2" d="M371.81,336.13c0,38-27.22,68.73-60.8,68.73s-60.8-30.77-60.8-68.73L311,267.39C344.59,267.39,371.81,298.16,371.81,336.13Z"/><path id="path4194" d="M346.52,360.21c0,21.42-15.9,38.78-35.51,38.78s-35.51-17.36-35.51-38.78,15.9-38.77,35.51-38.77S346.52,338.8,346.52,360.21Z"/><path id="path4196" class="cls-3" d="M264.85,496.92S338,456.26,397,456.26s134.17,38.63,134.17,38.63"/><path id="path4198" d="M385.88,0s19.83,70.91,24,99,23.14,86.75-17.76,88.91-22.31-60.83-22.72-91.07S385.88,0,385.88,0Z"/><path id="path4200" d="M199.81,20.84s76.95,22,105.46,60.83S366.34,187.38,320,196.13s-25.92-64.07-47.15-101.5c-17.08-30.11-73.07-73.79-73.07-73.79Z"/><path id="path4202" d="M37.79,107.93s94-16.56,144.7,5.76S302,207.63,259.15,232.83,203.72,172,160.89,145.36,37.79,107.93,37.79,107.93Z"/><path id="path4204" d="M0,261.09S69.47,213.22,131,224s115.89,51.47,89.26,83.14-52.62-33.9-108-52.91S37.43,258.81,0,261.09Z"/><path id="path4206" d="M590.2,32.33s-77,22-105.47,60.83S423.67,198.87,470,207.62s25.91-64.07,47.15-101.5C534.21,76,590.2,32.33,590.2,32.33Z"/><path id="path4208" d="M755.07,113.71s-93.94-16.56-144.69,5.76-119.5,93.94-76.67,119.14,55.43-60.83,98.26-87.47S755.07,113.71,755.07,113.71Z"/><path id="path4210" d="M800,259.73s-69.47-47.87-131-37.07-115.89,51.47-89.26,83.15,52.62-33.91,108-52.91,74.87,4.55,112.3,6.83Z"/><path id="path4231" class="cls-4" d="M472.74,413.46s11.93,34.26,0,34.26S472.74,413.46,472.74,413.46Z"/></g></g></svg>